<?xml version="1.0" encoding="utf-8"?>
<!-- Generator: Adobe Illustrator 18.1.1, SVG Export Plug-In . SVG Version: 6.00 Build 0)  -->
<svg version="1.1" xmlns="http://www.w3.org/2000/svg" xmlns:xlink="http://www.w3.org/1999/xlink" x="0px" y="0px"
	 viewBox="0 0 500 500" enable-background="new 0 0 500 500" xml:space="preserve">
<g id="Capa_1" display="none">
	<g display="inline">
		<g>
			<g>
				<path fill="#DC955E" d="M352,443.1c18,0,32.7,4.6,32.7,10.2c0,5.6-14.6,10.2-32.7,10.2s-32.7-4.6-32.7-10.2
					C319.4,447.7,334,443.1,352,443.1 M352,431.9c-9.8,0-19.2,1.2-26.4,3.5c-4.2,1.3-7.7,3-10.3,4.9c-6.2,4.6-7.1,10.1-7.1,13
					c0,2.9,0.9,8.4,7.1,13c2.6,2,6.1,3.6,10.3,4.9c7.2,2.3,16.6,3.5,26.4,3.5s19.2-1.2,26.4-3.5c4.2-1.3,7.7-3,10.3-4.9
					c6.2-4.6,7.1-10.1,7.1-13c0-2.9-0.9-8.4-7.1-13c-2.6-2-6.1-3.6-10.3-4.9C371.2,433.2,361.8,431.9,352,431.9L352,431.9z"/>
				<path fill="#DC955E" d="M319.4,459.6 M308.2,453.3v20.4c0,2.9,0.9,8.4,7.1,13c2.6,2,6.1,3.6,10.3,4.9c7.2,2.3,16.6,3.5,26.4,3.5
					s19.2-1.2,26.4-3.5c4.2-1.3,7.7-3,10.3-4.9c6.2-4.6,7.1-10.1,7.1-13v-14v-6.3l-11.2,6.3v14c0,5.6-14.6,10.2-32.7,10.2
					s-32.7-4.6-32.7-10.2v-14"/>
			</g>
		</g>
		<g>
			<g>
				<rect x="350.1" y="435.8" fill="#DC955E" width="3.9" height="31.8"/>
			</g>
		</g>
		<path fill="#DC955E" d="M352.7,424.1c0.8-2.7,2.6-5.8,6.4-8.6c2.6-2,6.1-3.6,10.3-4.9c7.2-2.3,16.6-3.5,26.4-3.5
			c9.8,0,19.2,1.2,26.4,3.5c4.2,1.3,7.7,3,10.3,4.9c6.2,4.6,7.1,10.1,7.1,13v6.3v14c0,2.9-0.9,8.4-7.1,13c-2.6,2-6.1,3.6-10.3,4.9
			c-5.3,1.6-11.7,2.7-18.6,3.2v-10.2v-1c14.2-1.1,24.8-5.1,24.8-9.9v-5c-1.9,0.9-3.9,1.8-6.2,2.5c-5.3,1.7-11.9,2.8-18.9,3.2
			c-0.5-3.2-1.9-7.1-5.1-10.9c16.9-0.4,30.2-4.8,30.2-10.2c0-5.4-13.6-9.9-30.7-10.2V438c-1.1-1.2-2.4-2.5-3.9-3.6v-16.1
			c-13.1,0.2-24.2,2.9-28.6,6.6C361.2,424.4,357,424.1,352.7,424.1z"/>
		<path fill="#DC955E" d="M349.3,424.1c-0.8-2.7-2.6-5.8-6.4-8.6c-2.6-2-6.1-3.6-10.3-4.9c-7.2-2.3-16.6-3.5-26.4-3.5
			c-9.8,0-19.2,1.2-26.4,3.5c-4.2,1.3-7.7,3-10.3,4.9c-6.2,4.6-7.1,10.1-7.1,13v6.3v14c0,2.9,0.9,8.4,7.1,13c2.6,2,6.1,3.6,10.3,4.9
			c5.3,1.6,11.7,2.7,18.6,3.2v-10.2v-1c-14.2-1.1-24.8-5.1-24.8-9.9v-5c1.9,0.9,3.9,1.8,6.2,2.5c5.3,1.7,11.9,2.8,18.9,3.2
			c0.5-3.2,1.9-7.1,5.1-10.9c-16.9-0.4-30.2-4.8-30.2-10.2c0-5.4,13.6-9.9,30.7-10.2V438c1.1-1.2,2.4-2.5,3.9-3.6v-16.1
			c13.1,0.2,24.2,2.9,28.6,6.6C340.8,424.4,345,424.1,349.3,424.1z"/>
		<g>
			<path fill="#5A98A7" d="M152.9,329.2c-2-0.1-3.1,0.7-3.2,2.6c0,0.2,0,0.4,0,0.6c2.4,0.2,3.6,0.3,6,0.4c0-0.2,0-0.4,0-0.6
				C155.9,330.3,155,329.3,152.9,329.2z"/>
			<path fill="#5A98A7" d="M175.7,334.3c-0.1,2.3-0.1,3.4-0.2,5.7c-0.1,1.5,0.8,2.3,2.6,2.4c0.9,0,1.6,0,2.2-0.1
				c0.1,0,0.1-0.1,0.2-0.2c0.1-3.9,0.2-5.9,0.3-9.8c-0.7-0.2-1.4-0.3-2.1-0.3C176.8,331.8,175.7,332.6,175.7,334.3z"/>
			<path fill="#5A98A7" d="M347.1,201.2c-6.2-20.1-18.4-30.6-29.3-41.6c-2.6-2.6-6.1-5.4-9-8.4c-9.1-9.7-13.5-18.9-17-26.3
				c2.4-5,4.2-9.6,4.2-12.7V60.4V47.7c0-5.8-3.5-16.8-15.8-25.9c-5.3-3.9-13-7.2-21.4-9.8c-14.4-4.5-33.6-7-53.3-7s-38.7,2.5-53.1,7
				c-8.4,2.6-13.6,5.9-18.9,9.8C121.2,30.9,121,42,121,47.7v64.4c0,3-1.2,7.5,1.1,12.4c-3.5,7.4-10,16.7-19.1,26.6
				c-2.9,3.1-6,5.8-8.6,8.4c-10.9,11-21.1,21.5-27.3,41.6c-5.3,17.3-7.1,40.4-7.1,82.6v127.9c0,5.3,0.8,15.5,10.4,25.8
				c9.2,10,22.9,17.3,42.9,22.5c22.8,5.9,53.7,8.9,91.8,8.9c17.5,0,36.5-0.6,50.9-1.9c-3.9-5.3-2.9-11.6-2.9-18.2v-6.3
				c-18,0.9-27.9,1.5-43.8,1.5C85.6,444,86,411.8,86,411.8s0-12,0-38.1c0,2.6,8,5.4,13.9,8.2c27.2,12.7,62.5,19.1,105.9,19.1
				s77.3-6.4,104.6-19.1c5.7-2.6,12.6-5.3,12.6-7.9c0,7.4,0,13.7,0,18.9c17,0.7,12.8,1.5,16.2,2.6c5.3,1.6,9.8,3.8,18.8,6.4V283.8
				C358,241.6,352.4,218.4,347.1,201.2z M205.1,27.3c36.1,0,65.3,9.1,65.3,20.4c0,11.3-29.3,20.4-65.3,20.4s-65.3-9.1-65.3-20.4
				C139.8,36.5,169,27.3,205.1,27.3z M139,78.5c9,1.8,8.2,3.5,12.9,4.9c14.4,4.5,33.5,7,53.1,7s39.6-2.5,54.1-7
				c4.6-1.4,11-4.2,20-11.2v33.6c0,11.3-37,26.7-73.1,26.7s-66.9-9.1-66.9-20.4V78.5z M138.7,315.8c-1,11.5-1.5,17.3-2.5,28.8
				c-0.1,1.4-0.7,1.8-2.2,1.7c-2.1-0.2-3.1-0.3-5.2-0.5c-1.5-0.1-2-0.7-1.8-2.1c0.3-2.6,0.4-3.9,0.6-6.6c0.3-3.3,1.4-7.2,3.2-11.8
				c-0.2,0-0.3,0-0.5,0c-0.3,0.8-0.9,2-1.8,3.6c-0.9,1.6-1.6,2.9-2.1,3.7c-1.3,2-1.9,3-3.2,4.9c-0.7,0.9-1.2,1.2-2.4,1.1
				c-1.3-0.1-1.9-0.2-3.2-0.3c-1.3-0.1-1.7-0.5-2.1-1.6c-0.9-2.2-1.3-3.3-2.2-5.5c-0.8-1.8-1.4-4.4-2-7.9c-0.2,0-0.3,0-0.5-0.1
				c0.7,5.1,0.9,9.2,0.5,12.3c-0.3,2.6-0.5,3.9-0.8,6.5c-0.2,1.4-0.7,1.8-2.3,1.6c-2-0.2-2.9-0.3-4.9-0.6c-1.5-0.2-2-0.7-1.8-2.1
				c1.5-11.5,2.2-17.2,3.6-28.7c0.2-1.5,0.7-1.9,2.2-1.7c1.7,0.2,2.6,0.3,4.3,0.5c1.6,0.2,2,0.5,2.6,1.7c2.4,6.3,3.6,9.4,6,15.7
				c3.7-5.6,5.6-8.4,9.2-14c0.7-1.2,1.2-1.4,2.7-1.2c1.8,0.2,2.8,0.3,4.6,0.4C138.4,313.8,138.9,314.3,138.7,315.8z M164.5,333.9
				c-0.1,1-0.1,1.5-0.1,2.5c-0.1,1.6-1,2.3-2.7,2.2c-4.9-0.3-7.4-0.4-12.3-0.8c0,0.3,0,0.5-0.1,0.9c-0.1,2,0.8,3.1,2.9,3.2
				c1.6,0.1,2.9-0.4,3.9-1.5c0.7-0.9,1.2-1,2.7-0.3c1.3,0.6,1.9,0.9,3.2,1.6c1.3,0.7,1.5,1.6,0.8,2.7c-2,2.9-5.7,4.3-11.1,3.9
				c-8.2-0.6-11.6-5.1-11.1-11.5c0.1-1.6,0.2-2.4,0.3-4c0.6-6.8,4.9-10.3,12.5-9.7C161.1,323.6,164.8,328,164.5,333.9z M189.3,345.9
				c0,1.5-0.4,1.9-2.1,2.6c-2.9,1-6.2,1.4-10,1.3c-3.8-0.1-6.5-1.2-8.2-2.9c-1.8-1.8-2.6-4.3-2.4-7.5c0.1-2,0.2-3,0.3-5
				c0.3-6.8,4.2-10.2,11.1-9.9c0.3,0,1.4,0.1,3.1,0.3c0.1-3.1,0.2-4.7,0.3-7.8c0-1.3,0.5-1.7,1.9-1.7c2,0.1,3,0.1,5,0.1
				c1.3,0,1.8,0.5,1.8,1.8C189.7,328.6,189.5,334.4,189.3,345.9z M202.1,347.9c0,1.3-0.5,1.7-1.9,1.7c-2.1,0-3.1,0-5.2-0.1
				c-1.4,0-1.9-0.5-1.8-1.8c0.2-8.2,0.2-12.3,0.4-20.5c0-1.3,0.5-1.7,1.9-1.7c2,0,3.1,0.1,5.1,0.1c1.4,0,1.8,0.5,1.8,1.8
				C202.2,335.6,202.1,339.7,202.1,347.9z M202.6,320.3c0,2.6-0.9,3.4-3.5,3.4c-0.9,0-1.4,0-2.3,0c-2.7,0-3.5-0.9-3.4-3.5
				c0-0.2,0-0.3,0-0.5c0.1-2.6,0.9-3.4,3.5-3.3c0.9,0,1.4,0,2.3,0c2.6,0,3.4,0.9,3.4,3.4C202.6,320,202.6,320.1,202.6,320.3z
				 M228.1,343.8c-1.7,4.3-5.5,6.5-11.3,6.5c-7.7,0.1-11.4-3.7-11.4-10.2c0-2,0-3,0-5c0-6.4,3.8-10.1,11.6-10.2
				c5.6,0,9.2,2.5,10.6,6.3c0.5,1.4,0.1,2-1.2,2.5c-1.7,0.6-2.6,0.9-4.4,1.5c-1.5,0.4-2,0.2-2.6-1.2c-0.5-1.2-1.4-1.9-2.8-1.9
				c-1.6,0-2.5,0.8-2.5,2.5c0,2.4,0,3.6,0,6c0,1.7,0.9,2.5,2.5,2.5c1.4,0,2.3-0.7,2.8-1.9c0.6-1.3,1.1-1.7,2.6-1.2
				c1.8,0.5,2.8,0.8,4.6,1.3C228.2,341.7,228.6,342.5,228.1,343.8z M230.1,319.6c-0.1-2.6,0.8-3.4,3.4-3.5c0.9,0,1.4,0,2.3-0.1
				c2.6-0.1,3.4,0.7,3.5,3.3c0,0.2,0,0.3,0,0.5c0.1,2.6-0.7,3.4-3.3,3.5c-0.9,0-1.4,0-2.3,0.1c-2.7,0.1-3.5-0.7-3.6-3.3
				C230.1,319.9,230.1,319.8,230.1,319.6z M238.2,349.2c-2.1,0.1-3.1,0.1-5.2,0.2c-1.4,0-1.9-0.4-1.9-1.7
				c-0.2-8.2-0.3-12.3-0.5-20.5c0-1.3,0.4-1.8,1.8-1.8c2-0.1,3.1-0.1,5.1-0.2c1.4,0,1.8,0.4,1.9,1.7c0.3,8.2,0.4,12.3,0.7,20.5
				C240.1,348.7,239.6,349.2,238.2,349.2z M265.2,347.9c-2.1,0.1-3.2,0.2-5.3,0.3c-1.3,0.1-1.9-0.4-1.9-1.6c-0.3-5-0.4-7.6-0.7-12.6
				c-0.1-1.7-1.1-2.5-3-2.4c-0.8,0-1.6,0.1-2.1,0.3c-0.1,0.1-0.1,0.1-0.1,0.2c0.3,5.9,0.4,8.9,0.7,14.8c0.1,1.3-0.3,1.8-1.7,1.8
				c-2.1,0.1-3.2,0.1-5.3,0.2c-1.4,0.1-1.8-0.4-1.9-1.7c-0.3-7.4-0.4-11.1-0.7-18.4c-0.1-1.5,0.3-2.2,1.8-2.8c2.9-1.3,6.2-2,9.9-2.2
				c7-0.4,10.7,2.9,11.2,9.3c0.3,5.2,0.5,7.8,0.8,12.9C266.9,347.4,266.5,347.8,265.2,347.9z M290.6,345.3c-2,1.1-5.2,1.8-9.4,2.1
				c-4.4,0.4-7.4,0-9.1-1.1c-1.7-1.1-2.7-3-2.8-5.7c-0.2-2.9,0.6-5,2.2-6.2c1.7-1.2,4.6-2,8.7-2.3c0.6,0,1.8-0.1,2.1-0.1
				c0-0.5-0.1-0.7-0.1-1.1c-0.1-1.6-1.1-2.3-2.8-2.1c-1.3,0.1-2.2,0.7-2.9,1.8c-0.6,1-1,1.2-2.5,0.8c-1.4-0.4-2.1-0.7-3.5-1.1
				c-1.4-0.5-1.7-1.1-1.2-2.5c1.5-3.3,4.8-5.1,10-5.6c7.8-0.6,11.2,2.7,11.8,8.9c0.4,4.5,0.6,6.8,1.1,11.3
				C292.3,344.1,292,344.6,290.6,345.3z M307.6,344.9c-6.1,0.7-10.1-0.8-11.9-4.2c-0.6-1.1-0.3-1.9,0.9-2.5c1.4-0.7,2.2-1,3.6-1.7
				c1.5-0.6,1.9-0.4,2.6,0.4c0.7,0.9,2,1.3,3.7,1.1c2.5-0.3,3.4-0.8,3.3-1.8c-0.1-1.1-1-1.4-4.7-1.2c-6.5,0.3-10.1-1.3-10.6-6.3
				c-0.5-4.8,2.9-8.2,9.6-8.9c5.3-0.6,9.1,0.6,11.3,3.6c0.7,1.1,0.5,1.9-0.7,2.6c-1.3,0.8-2,1.2-3.4,1.9c-0.7,0.4-1.1,0.6-1.5,0.4
				c-0.5-0.2-0.4-0.2-1-0.7c-0.8-0.8-2-1.1-3.5-0.9c-2.3,0.3-2.9,0.6-2.8,1.6c0.1,1,0.9,1.2,4,1.1c7.6-0.3,10.7,1.3,11.3,6.1
				C318.4,340.4,314.8,344.1,307.6,344.9z M324.3,241.4c-0.7,0.8-7.3,8.5-24.1,16.2c-30,13.7-68.2,16.6-94.9,16.6
				c-92.5,0-118.8-32.3-119-32.7c-0.4-0.5-0.8-1-1.2-1.4c3.3-45.9,13.8-49.2,35-71.9c8.4-9,14.4-17.8,18.9-25.6
				c3.9,2,8.3,3.8,13.3,5.4c14.4,4.5,33.2,7,52.9,7c19.6,0,38.4-2.5,52.9-7c4.9-1.5,9.2-3.3,13.1-5.2c4.4,7.8,10.5,16.6,18.8,25.5
				c21.4,22.9,31.8,26.1,35.1,72.5C324.7,240.9,324.5,241.1,324.3,241.4z"/>
			<path fill="#5A98A7" d="M280.3,338c-1.7,0.1-2.5,0.8-2.4,2c0.1,1.2,0.7,1.8,2.6,1.6c1.1-0.1,1.9-0.2,2.4-0.3
				c0.1,0,0.2-0.1,0.2-0.3c-0.1-1.3-0.2-2-0.3-3.3C282.4,337.8,281.6,337.9,280.3,338z"/>
		</g>
	</g>
</g>
<g id="Capa_2">
	<g>
		<path fill="#219CAC" d="M425.5,428.9H75.2V71.1h350.3V428.9z M450.4,5H49.6C27.5,5,9.6,22.9,9.6,44.9v410.1
			c0,22,17.9,39.9,39.9,39.9h400.9c22.1,0,39.9-18,39.9-39.9V44.9C490.4,22.9,472.5,5,450.4,5z"/>
		<path fill="#6BB6D1" d="M392.8,138.5c0,18.1-9.6,32.7-21.6,32.7H132.6c-11.9,0-21.6-14.6-21.6-32.7c0-18,9.7-32.7,21.6-32.7h238.6
			C383.2,105.8,392.8,120.5,392.8,138.5z"/>
		<path fill="#6BB6D1" d="M219.2,253c0,17.5-10.2,31.6-22.6,31.6h-62.9c-12.5,0-22.6-14.1-22.6-31.6c0-17.5,10.2-31.6,22.6-31.6
			h62.9C209.1,221.5,219.2,235.6,219.2,253z"/>
		<path fill="#6BB6D1" d="M218.2,367.6c0,18.3-10.2,33-22.6,33h-62.9c-12.5,0-22.6-14.7-22.6-33c0-18.2,10.2-33,22.6-33h62.9
			C208,334.6,218.2,349.4,218.2,367.6z"/>
		<path fill="#DC955D" d="M400,272.7L316.8,356c-4.7,4.6-10.9,7-16.9,7c-6.2,0-12.3-2.4-17-7l-32-32c-9.4-9.4-9.4-24.5,0-34
			c9.4-9.4,24.6-9.4,34,0l15,15l66.3-66.3c9.4-9.4,24.5-9.4,33.9,0C409.3,248.2,409.3,263.4,400,272.7z"/>
	</g>
</g>
</svg>
